<svg width="17" height="16" viewBox="0 0 17 16" fill="none" xmlns="http://www.w3.org/2000/svg">
<g clip-path="url(#clip0_8_17)">
<path d="M11.682 0.00800701C11.648 -0.029993 10.423 0.023007 9.35699 1.18001C8.29099 2.33601 8.45499 3.66201 8.47899 3.69601C8.50299 3.73001 9.99899 3.78301 10.954 2.43801C11.909 1.09301 11.716 0.047007 11.682 0.00800701M14.996 11.741C14.948 11.645 12.671 10.507 12.883 8.31901C13.095 6.13101 14.558 5.53001 14.581 5.46501C14.604 5.40001 13.984 4.67501 13.327 4.30801C12.8445 4.04951 12.3107 3.90128 11.764 3.87401C11.656 3.87101 11.281 3.77901 10.51 3.99001C10.002 4.12901 8.85699 4.57901 8.54199 4.59701C8.22599 4.61501 7.28599 4.07501 6.27499 3.93201C5.62799 3.80701 4.94199 4.06301 4.45099 4.26001C3.96099 4.45601 3.02899 5.01401 2.37699 6.49701C1.72499 7.97901 2.06599 10.327 2.30999 11.057C2.55399 11.787 2.93499 12.981 3.58299 13.853C4.15899 14.837 4.92299 15.52 5.24199 15.752C5.56099 15.984 6.46099 16.138 7.08499 15.819C7.58699 15.511 8.49299 15.334 8.85099 15.347C9.20799 15.36 9.91199 15.501 10.633 15.886C11.204 16.083 11.744 16.001 12.285 15.781C12.826 15.56 13.609 14.722 14.523 13.023C14.8697 12.233 15.0273 11.8057 14.996 11.741" fill="black"/>
<path d="M11.682 0.00800701C11.648 -0.029993 10.423 0.023007 9.35699 1.18001C8.29099 2.33601 8.45499 3.66201 8.47899 3.69601C8.50299 3.73001 9.99899 3.78301 10.954 2.43801C11.909 1.09301 11.716 0.047007 11.682 0.00800701M14.996 11.741C14.948 11.645 12.671 10.507 12.883 8.31901C13.095 6.13101 14.558 5.53001 14.581 5.46501C14.604 5.40001 13.984 4.67501 13.327 4.30801C12.8445 4.04951 12.3107 3.90128 11.764 3.87401C11.656 3.87101 11.281 3.77901 10.51 3.99001C10.002 4.12901 8.85699 4.57901 8.54199 4.59701C8.22599 4.61501 7.28599 4.07501 6.27499 3.93201C5.62799 3.80701 4.94199 4.06301 4.45099 4.26001C3.96099 4.45601 3.02899 5.01401 2.37699 6.49701C1.72499 7.97901 2.06599 10.327 2.30999 11.057C2.55399 11.787 2.93499 12.981 3.58299 13.853C4.15899 14.837 4.92299 15.52 5.24199 15.752C5.56099 15.984 6.46099 16.138 7.08499 15.819C7.58699 15.511 8.49299 15.334 8.85099 15.347C9.20799 15.36 9.91199 15.501 10.633 15.886C11.204 16.083 11.744 16.001 12.285 15.781C12.826 15.56 13.609 14.722 14.523 13.023C14.8697 12.233 15.0273 11.8057 14.996 11.741" fill="black"/>
</g>
<defs>
<clipPath id="clip0_8_17">
<rect width="16" height="16" fill="white" transform="translate(0.5)"/>
</clipPath>
</defs>
</svg>
