<svg width="16" height="16" viewBox="0 0 16 16" fill="none" xmlns="http://www.w3.org/2000/svg">
<g opacity="0.7">
<path opacity="0.7" d="M6.22866 12.5214L4.94066 12.1761L5.46533 10.2167C4.67999 9.92707 3.95009 9.50496 3.30733 8.96874L1.872 10.4047L0.92933 9.46207L2.36466 8.02607C1.55405 7.05524 1.00939 5.89058 0.783997 4.64607L2.096 4.40674C2.34763 5.78928 3.07645 7.03967 4.15542 7.93999C5.23438 8.8403 6.59508 9.33343 8.00033 9.33343C9.40558 9.33343 10.7663 8.8403 11.8452 7.93999C12.9242 7.03967 13.653 5.78928 13.9047 4.40674L15.2167 4.6454C14.9912 5.8902 14.4463 7.05511 13.6353 8.02607L15.0713 9.46207L14.1287 10.4047L12.6927 8.96874C12.0499 9.50495 11.32 9.92706 10.5347 10.2167L11.06 12.1767L9.772 12.5214L9.24666 10.5614C8.42157 10.7028 7.57842 10.7028 6.75333 10.5614L6.22866 12.5214Z" fill="white"/>
</g>
</svg>
