<svg width="17" height="16" viewBox="0 0 17 16" fill="none" xmlns="http://www.w3.org/2000/svg">
<g clip-path="url(#clip0_8_9)">
<path d="M6.07374 0.526248C4.47509 1.08083 3.09642 2.13346 2.14023 3.5295C1.18404 4.92554 0.700732 6.59143 0.761296 8.28245C0.82186 9.97348 1.4231 11.6005 2.47671 12.9246C3.53032 14.2486 4.98077 15.1999 6.61499 15.6387C7.9399 15.9806 9.328 15.9956 10.66 15.6825C11.8666 15.4115 12.9822 14.8317 13.8975 14C14.8501 13.1079 15.5415 11.9731 15.8975 10.7175C16.2844 9.35208 16.3532 7.91616 16.0987 6.52H8.65874V9.60625H12.9675C12.8814 10.0985 12.6968 10.5683 12.4249 10.9875C12.153 11.4068 11.7993 11.7669 11.385 12.0462C10.8588 12.3943 10.2657 12.6285 9.64374 12.7337C9.01992 12.8497 8.38006 12.8497 7.75624 12.7337C7.12398 12.603 6.52587 12.3421 5.99999 11.9675C5.15518 11.3695 4.52084 10.5199 4.18749 9.54C3.84851 8.54174 3.84851 7.45951 4.18749 6.46125C4.42478 5.76152 4.81703 5.12442 5.33499 4.5975C5.92773 3.98343 6.67816 3.54449 7.50394 3.32884C8.32972 3.11319 9.19894 3.12916 10.0162 3.375C10.6547 3.57099 11.2386 3.91342 11.7212 4.375C12.2071 3.89166 12.6921 3.40708 13.1762 2.92125C13.4262 2.66 13.6987 2.41125 13.945 2.14375C13.2082 1.45809 12.3433 0.924569 11.4 0.573748C9.68212 -0.0500151 7.80246 -0.0667781 6.07374 0.526248Z" fill="white"/>
<path d="M6.07372 0.526245C7.8023 -0.067184 9.68196 -0.0508623 11.4 0.572495C12.3435 0.925699 13.208 1.46179 13.9437 2.14999C13.6937 2.41749 13.43 2.66749 13.175 2.92749C12.69 3.41166 12.2054 3.89416 11.7212 4.37499C11.2385 3.91342 10.6547 3.57098 10.0162 3.37499C9.19919 3.1283 8.32999 3.1114 7.50399 3.32617C6.678 3.54094 5.92711 3.97907 5.33372 4.59249C4.81576 5.11941 4.4235 5.75652 4.18622 6.45624L1.59497 4.44999C2.52248 2.6107 4.12841 1.20377 6.07372 0.526245Z" fill="#E33629"/>
<path d="M0.90756 6.43751C1.04684 5.74725 1.27806 5.0788 1.59506 4.45001L4.18631 6.46126C3.84733 7.45952 3.84733 8.54175 4.18631 9.54001C3.32298 10.2067 2.45923 10.8767 1.59506 11.55C0.801498 9.97041 0.559476 8.17064 0.90756 6.43751Z" fill="#F8BD00"/>
<path d="M8.65876 6.51874H16.0988C16.3533 7.9149 16.2844 9.35082 15.8975 10.7162C15.5416 11.9718 14.8501 13.1067 13.8975 13.9987C13.0613 13.3462 12.2213 12.6987 11.385 12.0462C11.7996 11.7666 12.1535 11.4061 12.4254 10.9864C12.6973 10.5667 12.8817 10.0964 12.9675 9.60374H8.65876C8.65751 8.57624 8.65876 7.54749 8.65876 6.51874Z" fill="#587DBD"/>
<path d="M1.59375 11.55C2.45792 10.8833 3.32167 10.2133 4.185 9.53998C4.51901 10.5202 5.15426 11.3698 6 11.9675C6.52751 12.3403 7.12691 12.5991 7.76 12.7275C8.38382 12.8435 9.02368 12.8435 9.6475 12.7275C10.2695 12.6222 10.8626 12.388 11.3888 12.04C12.225 12.6925 13.065 13.34 13.9012 13.9925C12.9861 14.8246 11.8705 15.4048 10.6637 15.6762C9.33176 15.9894 7.94365 15.9743 6.61875 15.6325C5.57088 15.3527 4.59209 14.8595 3.74375 14.1837C2.84583 13.4708 2.11244 12.5724 1.59375 11.55Z" fill="#319F43"/>
</g>
<defs>
<clipPath id="clip0_8_9">
<rect width="16" height="16" fill="white" transform="translate(0.5)"/>
</clipPath>
</defs>
</svg>
