<svg width="14" height="14" viewBox="0 0 14 14" fill="none" xmlns="http://www.w3.org/2000/svg">
<path opacity="0.7" d="M0.495313 4.56931L6.65998 0.87331C6.76351 0.811271 6.88195 0.778503 7.00265 0.778503C7.12334 0.778503 7.24178 0.811271 7.34531 0.87331L13.5053 4.56998C13.5546 4.59967 13.5954 4.64161 13.6236 4.69173C13.6519 4.74185 13.6667 4.79843 13.6666 4.85598V13.3333C13.6666 13.5101 13.5964 13.6797 13.4714 13.8047C13.3464 13.9297 13.1768 14 13 14H0.99998C0.823169 14 0.653599 13.9297 0.528575 13.8047C0.403551 13.6797 0.333313 13.5101 0.333313 13.3333V4.85531C0.333301 4.7977 0.348218 4.74108 0.37661 4.69095C0.405002 4.64083 0.445899 4.59892 0.495313 4.56931ZM1.66665 5.42198V12.6666H12.3333V5.42131L7.00265 2.22131L1.66665 5.42198ZM7.03998 9.13198L10.5706 6.15664L11.4293 7.17664L7.04931 10.868L2.57598 7.18131L3.42398 6.15198L7.03998 9.13198Z" fill="white"/>
</svg>
